<svg width="239" height="261" viewBox="0 0 239 261" fill="none" xmlns="http://www.w3.org/2000/svg">
<g clip-path="url(#clip0_820_246)">
<path d="M150.542 121.887L98.5018 138.88L53.2271 158.862L40.5615 162.205C37.3361 165.274 33.953 168.381 30.2954 171.529C26.2837 174.99 22.5467 178.137 19.6742 180.419C16.4885 182.936 11.7678 187.657 9.36833 190.645C5.78896 195.129 2.95614 199.889 1.73763 203.547C-0.425864 210.155 0.637111 216.842 4.80643 223.018C10.1556 230.885 20.8154 238.909 33.2451 244.376C39.5779 247.169 50.2377 250.749 58.2621 252.754C71.5959 256.138 97.4002 259.796 111.6 260.347C114.471 260.465 118.326 260.465 118.483 260.347C118.798 260.149 121 255.941 123.557 250.71C132.29 232.89 138.583 216.174 142.006 201.895C144.051 193.242 145.663 181.716 146.725 168.067C147.001 164.252 147.119 151.467 146.883 147.14C146.529 140.06 145.899 134.318 144.917 128.692C144.759 127.866 144.719 127.119 144.799 127.079C144.955 126.961 145.427 126.803 151.839 124.954L150.542 121.886V121.887ZM138.663 128.85C139.135 128.85 140.393 140.925 140.708 148.557C140.787 150.169 140.747 151.231 140.668 151.231C140.354 151.231 134.02 147.495 129.498 144.662C125.564 142.185 118.09 137.228 116.91 136.284C116.517 136.008 116.555 135.97 119.782 134.868C125.249 133.019 138.23 128.85 138.663 128.85ZM112.151 137.582C112.505 137.582 113.409 138.093 115.573 139.43C123.675 144.505 134.69 150.641 139.41 152.687C140.865 153.316 141.022 153.079 137.679 155.362C130.52 160.239 121.59 165.038 110.655 169.877C108.727 170.742 107.115 171.411 107.076 171.411C106.998 171.411 107.233 170.428 107.547 169.247C110.183 159.452 111.678 149.54 111.757 141.595C111.797 137.661 111.797 137.661 112.151 137.543C112.072 137.582 112.111 137.582 112.151 137.582ZM106.684 139.667C106.919 139.903 106.762 148.714 106.447 151.113C105.739 156.856 104.637 162.205 102.829 168.225C102.397 169.679 102.002 170.899 101.925 170.978C101.767 171.175 96.378 165.904 94.6071 163.858C91.5383 160.317 89.1399 156.778 87.37 153.316C86.4647 151.547 85.0499 148.085 85.1669 147.967C85.7965 147.534 106.526 139.51 106.684 139.667ZM80.9579 149.776C80.9975 149.776 81.0362 149.776 81.0759 149.815C81.1542 149.894 81.4298 150.523 81.6658 151.231C82.924 154.654 85.7557 159.688 88.1949 162.914C90.87 166.455 94.3711 170.231 97.2812 172.708C98.2262 173.495 99.0907 174.242 99.2087 174.36C99.4457 174.596 99.524 174.557 93.1118 176.996C85.6785 179.828 77.5748 182.659 68.2912 185.649C66.074 186.364 63.858 187.085 61.6441 187.812C61.289 187.93 61.4081 187.734 62.4303 186.121C67.0319 178.922 74.034 164.801 77.9674 154.81C78.6356 153.078 79.3049 151.348 79.4229 150.954C79.5806 150.403 79.7769 150.207 80.2875 149.931C80.5642 149.855 80.8399 149.776 80.9579 149.776ZM73.0912 153.041C73.2092 153.12 71.2023 157.328 69.2362 161.183C65.4208 168.617 61.2515 175.934 55.6652 184.824C54.7213 186.358 53.8171 187.775 53.6991 187.931C53.5028 188.207 53.4234 188.128 52.7949 186.909C51.4573 184.274 50.3557 180.89 49.7658 177.783C49.1758 174.714 49.2938 169.365 49.9631 166.061C50.4737 163.623 50.4351 163.662 51.615 163.072C56.6488 160.515 72.9346 152.883 73.0912 153.041ZM140.944 155.794V157.446C140.944 166.218 140 178.254 138.622 187.026C138.387 188.56 138.189 189.818 138.151 189.858C138.151 189.858 137.01 189.543 135.673 189.15C129.772 187.301 123.361 184.587 117.579 181.401C113.762 179.316 108.217 175.893 108.374 175.737C108.413 175.698 110.066 174.832 111.992 173.809C119.703 169.797 127.097 165.47 133.509 161.183C135.909 159.57 139.527 156.974 140.315 156.266L140.944 155.794ZM43.3933 167.436C43.5509 167.436 43.5112 167.751 43.2753 169.168C43.1176 170.191 42.9213 172.079 42.843 173.377C42.5276 179.12 43.4726 183.368 46.3044 189.189C47.0906 190.803 47.7213 192.14 47.6806 192.179C47.4049 192.415 21.3657 200.047 13.1837 202.288C10.7456 202.957 8.62178 203.547 8.46303 203.586C8.18843 203.666 8.14875 203.626 8.26674 202.957C9.17096 197.175 13.5773 189.623 19.7128 183.25C23.8038 179.003 27.0689 176.525 32.6541 173.338C36.6657 171.058 42.8419 167.635 43.3139 167.477C43.315 167.436 43.3536 167.436 43.3933 167.436ZM104.756 178.412C104.796 178.372 105.74 178.885 106.88 179.553C115.298 184.43 127.02 188.955 137.01 191.275L137.916 191.472L136.656 192.179C131.425 195.09 114.236 202.249 96.6537 208.817C94.0965 209.761 91.579 210.705 91.1071 210.902C90.6351 211.098 90.2018 211.216 90.2018 211.177C90.2018 211.138 90.9108 209.76 91.814 208.07C96.7309 198.866 101.688 187.656 104.205 179.867C104.52 179.12 104.716 178.451 104.756 178.412ZM98.5018 180.457C98.5415 180.497 98.2261 181.323 97.8336 182.267C94.4119 190.567 89.9272 199.614 84.1843 209.762C82.7288 212.359 81.5092 214.443 81.4695 214.443C81.4309 214.443 80.2499 213.734 78.8341 212.87C70.4943 207.757 63.0996 201.462 58.2621 195.366L57.5541 194.5L61.1335 193.516C73.9568 190.016 84.8526 186.24 95.6701 181.598C97.2039 180.969 98.4621 180.457 98.5018 180.457ZM137.364 194.028C137.364 194.028 137.404 194.067 137.364 194.028C137.404 194.933 135.397 203.036 133.745 208.896C132.369 213.813 131.188 217.668 129.026 224.472C128.082 227.463 127.256 229.94 127.216 229.94C127.176 229.94 126.94 229.9 126.704 229.823C115.022 227.698 104.559 224.748 94.7251 220.815C91.9716 219.713 88.0383 217.943 87.8023 217.746C87.724 217.667 90.0838 216.566 93.0732 215.268C110.97 207.44 129.536 198.551 135.909 194.736C136.656 194.263 137.246 194.028 137.364 194.028ZM47.6419 197.096C47.7202 197.174 42.725 204.372 35.7229 214.167C33.2848 217.589 30.452 221.601 29.3901 223.095C28.3281 224.59 26.7149 226.95 25.8107 228.366L24.1578 230.923L22.3879 229.429C20.3027 227.698 16.6847 224.001 15.0715 221.955C11.6884 217.747 9.40802 213.302 8.50272 209.251C8.07045 207.362 8.07044 206.418 8.46303 206.3C9.05297 206.142 19.5551 203.665 29.3901 201.383C34.8573 200.125 41.1901 198.63 43.4716 198.079C45.753 197.528 47.6023 197.096 47.6419 197.096ZM52.6758 199.023L53.934 200.439C59.5986 206.772 65.3811 211.454 72.3822 215.544C73.6414 216.253 74.5854 216.881 74.506 216.921C74.2314 217.117 50.1969 225.652 39.0652 229.507C32.8117 231.709 27.6578 233.48 27.6191 233.48C27.5795 233.48 27.2255 233.244 26.8318 232.969L26.1239 232.457L27.2641 230.805C30.9615 225.456 35.6038 219.595 45.7123 207.402L52.6758 199.023ZM84.0663 221.483C84.105 221.444 85.8362 222.073 87.96 222.86C93.0743 224.788 97.1245 226.006 102.554 227.384C109.241 229.075 118.917 230.727 124.621 231.199C125.487 231.277 125.959 231.357 125.801 231.475C125.526 231.632 119.744 233.56 115.496 234.897C108.729 237.021 88.0791 243.118 71.2441 247.957C68.1367 248.861 65.4616 249.608 65.3039 249.648C64.9113 249.728 63.6123 249.372 63.6123 249.216C63.6123 249.138 64.5563 247.918 65.6975 246.58C71.361 239.814 76.987 232.263 81.6679 225.103C82.9637 223.135 84.0663 221.523 84.0663 221.483ZM77.1425 221.68C77.1822 221.719 74.3891 226.204 69.5118 233.913C67.4266 237.178 65.1054 240.875 64.2795 242.173C63.4933 243.431 62.3134 245.398 61.6441 246.5L60.5028 248.506L59.9128 248.348C58.4959 247.954 48.5451 244.453 45.9096 243.391C42.6446 242.094 39.2615 240.52 36.744 239.182C33.598 237.491 29.6646 234.974 29.9789 234.895C30.0572 234.856 35.4461 233.4 41.9366 231.63C59.1652 226.949 68.7234 224.235 74.9779 222.268C76.1203 221.916 77.1028 221.641 77.1425 221.68ZM126.115 233.165H126.154C126.312 233.559 119.939 251.259 117.618 256.844C117.108 258.103 116.911 258.418 116.636 258.378C115.967 258.34 106.724 257.042 101.098 256.215C91.3034 254.721 74.861 251.848 70.7314 250.904L69.7875 250.708L75.6473 249.369C88.2346 246.538 94.2928 245.004 100.428 243.116C108.178 240.756 115.848 237.805 123.597 234.187C124.817 233.637 125.839 233.205 126.115 233.165Z" fill="white"/>
<path d="M96.8857 0.579637C96.0201 0.46272 82.0556 5.49657 73.0487 9.15423C60.8937 14.1108 51.4546 18.8315 45.6324 22.9214C43.4689 24.4564 40.7552 27.1701 40.3229 28.232C40.1652 28.6257 40.0869 29.0976 40.0869 29.5696L45.3578 34.5648L57.9054 38.5764L87.7609 43.9256L121.903 49.7865L122.257 46.8368C122.139 46.8368 122.06 46.7971 121.942 46.7971L117.457 46.0891L116.552 44.477C111.911 36.295 106.797 26.1468 103.807 19.3024C101.487 13.9918 99.2841 7.85635 98.0645 3.45106C97.3974 0.777001 97.3191 0.620397 96.8857 0.579637ZM96.2561 2.58653H96.2969C96.3355 2.62514 96.4931 3.7278 96.6508 5.02461C97.3191 10.5326 98.5397 15.8421 100.466 21.5849C101.922 25.9119 101.922 25.6759 100.23 25.1643C96.2186 24.0638 78.2424 20.9553 65.2229 19.1468C63.1377 18.8712 61.3678 18.5966 61.3678 18.5569C61.2102 18.3992 70.7683 13.404 74.9773 11.4379C80.3651 8.95901 95.1556 2.78282 96.2561 2.58653ZM58.3377 20.2087L59.8726 20.7193C68.2112 23.5521 89.1757 27.5638 100.741 28.5077C102.039 28.6257 103.14 28.7437 103.179 28.7437C103.219 28.7833 102.117 29.3733 100.701 30.0415C95.1159 32.8347 88.9794 36.2563 84.7318 38.8918C83.4736 39.678 82.3323 40.3077 82.1757 40.3077C82.0181 40.3077 81.1921 40.15 80.3276 40.032L78.754 39.796L74.8207 35.941C67.898 29.2156 62.4694 24.023 60.3842 22.0558L58.3377 20.2087ZM56.7652 21.4272L62.3117 28.35C65.3398 32.1653 68.4086 35.9024 69.0779 36.7272C69.7461 37.5542 70.2975 38.2225 70.2578 38.2622C70.1001 38.3801 62.2334 36.8452 58.0641 35.9024C53.7769 34.9188 52.007 34.4468 49.3716 33.6209L47.2081 32.913V32.3616C47.2478 29.7262 50.5912 25.7928 56.2546 21.7812L56.7652 21.4272ZM103.888 30.8685C104.046 30.8685 104.242 31.2225 104.714 32.2844C106.051 35.2341 110.222 43.1802 111.243 44.714C111.558 45.2257 112.108 45.2654 106.563 44.3601C93.2291 42.1966 88.9408 41.4886 88.9408 41.4103C88.9408 41.3706 89.3344 41.096 89.8461 40.8204C93.9768 38.5389 98.1461 35.6289 101.843 32.5204C102.749 31.7728 103.575 31.0648 103.731 30.9468C103.77 30.8685 103.848 30.8288 103.888 30.8685Z" fill="white"/>
<path d="M40.5996 27.6816C40.5996 27.6816 39.7351 29.0589 40.561 31.1044C41.0726 32.3626 42.5668 33.8965 44.2583 35.47C44.2583 35.47 61.7625 52.5409 63.8863 54.98C73.5625 66.1504 77.7715 77.1642 78.1651 92.3483C78.4011 102.104 76.5519 110.678 71.9503 120.63C63.7683 138.488 46.5001 158.195 19.8711 180.066L23.7658 178.768C26.2833 176.879 29.7049 174.874 37.7292 170.468C56.2556 160.319 77.1032 150.996 102.671 141.399C139.488 127.552 200.025 111.346 234.481 106.076L238.061 105.524L237.51 104.659C234.364 99.7816 232.2 96.7525 229.604 93.5271C222.053 84.1652 212.888 76.5742 201.677 70.28C186.258 61.6657 166.315 54.9404 141.062 49.9441C136.303 48.9991 125.839 47.1906 117.343 45.8927C99.3269 43.1007 87.6847 41.1732 74.8614 38.97C70.2599 38.1827 63.3757 37.0028 58.8128 36.0203C56.453 35.5086 51.9297 34.4467 48.3901 33.2271C45.5562 32.1266 41.4652 31.025 40.5996 27.6816ZM50.7488 37.5155C50.7874 37.4769 51.417 37.7118 52.243 37.9875C53.7371 38.498 55.6646 39.088 57.9472 39.7187C59.673 40.1939 61.4043 40.6519 63.1387 41.0949C65.4985 41.6848 67.4657 42.2351 67.5043 42.2351C67.7799 42.5107 71.7529 55.2149 73.0905 60.0922C73.6011 61.9414 73.9947 63.5149 73.9561 63.5149C73.9154 63.5546 73.4831 62.8853 72.9725 61.9811C68.3699 53.8785 61.0932 45.6568 52.6752 39.0483C51.5747 38.2631 50.7488 37.5552 50.7488 37.5155ZM70.1011 42.8658C70.2974 42.8658 71.163 42.9838 72.2249 43.2197C78.9117 44.7139 90.909 46.9954 98.5793 48.2943C99.8772 48.4906 100.9 48.7277 100.9 48.806C100.9 48.8854 100.427 49.16 99.8375 49.4753C98.5396 50.1436 93.3084 53.251 91.5783 54.4309C87.2116 57.342 83.2783 60.488 80.4466 63.3208C79.3064 64.4621 78.3217 65.406 78.3217 65.406C78.3217 65.406 78.0868 64.7377 77.8894 63.9107C76.4746 58.4436 73.5239 50.3398 70.8487 44.6367C70.4165 43.7325 70.0614 42.9065 70.0614 42.8282C70.0614 42.9044 70.0614 42.8658 70.1011 42.8658ZM104.164 49.3552C104.4 49.4335 104.794 50.771 105.58 53.7208C107.036 59.425 107.705 65.7964 107.469 71.7366C107.39 73.3885 107.312 74.9224 107.232 75.1197L107.114 75.5123L105.069 74.8441C100.86 73.5065 94.0164 71.5007 88.1555 69.8488C84.8111 68.9446 82.0984 68.1176 82.0984 68.0393C82.0984 67.8033 86.9757 62.9261 89.0608 61.0769C93.0328 57.5758 103.811 49.2372 104.164 49.3552ZM106.879 49.7488C106.997 49.6319 123.164 52.424 130.52 53.8398C135.988 54.9017 143.933 56.5536 144.405 56.7509C144.641 56.8293 143.815 57.3012 141.18 58.4811C130.796 63.1621 123.086 67.3711 115.416 72.4843C113.411 73.8218 111.719 74.9224 111.679 74.9224C111.64 74.9224 111.601 73.7822 111.601 72.4049C111.601 64.9319 110.106 57.3795 107.352 51.007C107.076 50.3785 106.84 49.7885 106.879 49.7488ZM148.691 58.0091C148.809 58.1271 148.298 61.3139 147.826 63.2007C146.41 69.0615 142.595 77.7552 137.915 85.9361C137.088 87.3917 136.341 88.5716 136.262 88.6112C136.183 88.6509 135.122 88.0599 133.902 87.352C129.339 84.6768 124.148 82.1604 118.483 79.7996C116.91 79.1313 115.533 78.58 115.494 78.5017C115.218 78.2657 127.883 69.8874 134.571 65.8747C139.881 62.6504 148.534 57.8515 148.691 58.0091ZM151.681 58.4811C152.035 58.4811 159.195 60.4483 162.93 61.5499C172.174 64.3033 182.794 68.197 189.717 71.3441L192.589 72.643L190.583 73.115C173.67 77.0086 159.193 81.4933 145.23 87.1578C144.09 87.6298 143.066 88.0234 142.988 88.0234C142.909 88.0234 143.302 87.1192 143.814 86.0176C148.023 77.0891 150.737 67.7668 151.405 59.8208C151.446 59.071 151.563 58.4811 151.681 58.4811ZM80.4069 74.8441C80.5249 74.7261 85.9921 76.0239 88.9429 76.8499C93.4264 78.1091 102.946 81.2948 102.946 81.5308C102.946 81.5705 101.884 82.4747 100.626 83.5763C95.473 87.8636 90.5164 92.3869 84.5762 98.1298C82.8064 99.8213 81.3122 101.199 81.2339 101.199C81.1545 101.199 81.1159 100.961 81.1545 100.647C82.0587 94.0387 81.8635 85.5425 80.6043 76.9282C80.4852 75.8277 80.3672 74.8837 80.4069 74.8441ZM195.303 74.9631C195.382 75.0414 192.786 79.1324 191.134 81.4525C188.774 84.8356 185.312 89.3203 177.484 99.1541C173.354 104.346 168.712 110.208 167.179 112.174C165.606 114.14 164.308 115.792 164.268 115.792C164.228 115.792 163.718 115.084 163.168 114.219C158.762 107.611 153.49 101.828 147.237 96.6367C146.057 95.653 144.759 94.5911 144.327 94.2758C143.895 93.9615 143.54 93.6462 143.54 93.6075C143.54 93.4896 150.226 90.6181 155.301 88.5726C164.191 84.9536 176.304 80.6266 185.391 77.8335C190.15 76.3393 195.224 74.8837 195.303 74.9631ZM198.332 75.7493C198.489 75.7107 199.434 76.1827 200.574 76.8499C210.132 82.3171 219.494 89.3589 226.889 96.597C228.973 98.6425 234.126 103.992 234.048 104.031C234.048 104.031 232.238 104.189 230.114 104.346C213.554 105.605 192.354 109.105 171.978 114.022C170.602 114.336 169.382 114.612 169.303 114.612C169.225 114.612 170.758 113.078 172.686 111.23C184.644 99.7044 190.111 92.4277 196.562 79.4467C197.467 77.5192 198.253 75.8673 198.332 75.7493C198.293 75.7493 198.293 75.7493 198.332 75.7493ZM110.733 84.7176C111.285 84.8345 116.398 87.2351 120.253 89.1626C123.792 90.9324 129.103 93.7652 129.379 94.0001C129.418 94.0398 127.53 95.0224 125.209 96.1636C117.814 99.861 111.481 103.361 104.872 107.374C102.985 108.515 101.411 109.459 101.372 109.459C101.215 109.459 101.254 109.301 102.316 107.374C105.857 100.923 108.689 93.2139 110.302 85.7001C110.459 85.1102 110.616 84.7176 110.733 84.7176ZM105.62 85.6615C105.738 85.7795 104.4 90.6171 103.576 93.2536C101.962 98.2488 99.2486 104.503 96.6132 109.224C95.9836 110.324 95.0397 111.938 94.528 112.842L93.5444 114.415L91.3412 112.292C88.7852 109.814 86.7 108.279 84.0249 106.903C82.9619 106.353 82.136 105.881 82.136 105.802C82.136 105.488 88.8624 99.3912 94.0153 94.9848C97.7137 91.798 105.502 85.5435 105.62 85.6615ZM136.891 98.5245L138.819 99.7827C143.223 102.654 148.416 106.469 152.389 109.813C154.63 111.661 158.956 115.556 159.823 116.5L160.294 117.011L157.108 117.915C139.092 122.911 125.169 127.356 108.923 133.334C107.113 134.003 105.579 134.554 105.461 134.554C105.226 134.554 105.029 134.75 109.08 131.013C119.464 121.456 128.669 110.913 135.513 100.647L136.891 98.5245ZM128.671 100.569C128.749 100.647 123.36 108.238 120.135 112.527C116.28 117.64 109.435 126.215 104.716 131.8C102.75 134.121 101.058 136.048 100.98 136.088C100.862 136.128 100.822 135.538 100.822 134.632C100.822 129.872 99.6026 124.799 97.4788 120.472C96.5735 118.662 96.4169 118.23 96.6143 118.033C97.3619 117.364 108.808 110.835 116.045 106.941C120.921 104.346 128.552 100.491 128.671 100.569ZM78.9513 112.764C79.0693 112.764 79.9746 113.236 80.9968 113.786C83.5143 115.162 85.7561 116.696 87.7619 118.349C87.8402 118.427 86.818 119.254 85.4804 120.237C81.7434 122.912 76.0799 127.199 72.7762 129.835C69.3138 132.588 69.1969 132.666 69.5895 132.076C72.1863 128.103 73.4831 125.861 74.8603 122.99C76.0799 120.434 77.2984 117.405 78.164 114.769C78.4794 113.628 78.873 112.764 78.9513 112.764ZM92.2079 123.148C92.4042 123.109 92.6402 123.462 93.7021 125.037C95.9439 128.379 97.6751 132.865 98.1084 136.483L98.1867 137.27L92.7989 139.355C83.1614 143.091 74.2725 146.79 68.253 149.542C66.5625 150.329 63.6117 151.745 61.6853 152.689C59.7578 153.672 58.1842 154.419 58.1842 154.381C58.1842 154.342 59.4038 153.437 60.898 152.335C72.6593 143.8 82.8471 134.438 90.4778 125.076C91.3037 124.093 92.0513 123.187 92.1296 123.149L92.2079 123.148ZM86.1111 124.642C86.2688 124.8 81.7841 129.873 78.7164 132.981C71.1244 140.73 63.6117 146.787 54.2895 152.688C53.1096 153.436 52.0477 154.104 51.9297 154.182C51.6541 154.34 52.008 153.946 56.099 149.501C58.6959 146.708 60.662 144.348 62.9038 141.438C64.3979 139.511 64.6736 139.236 66.8382 137.701C72.6186 133.532 85.9534 124.484 86.1111 124.642Z" fill="white"/>
</g>
<defs>
<clipPath id="clip0_820_246">
<rect width="237.417" height="259.859" fill="white" transform="translate(0.647949 0.578125)"/>
</clipPath>
</defs>
</svg>
